<svg width="24" height="16" viewBox="0 0 24 16" fill="none" xmlns="http://www.w3.org/2000/svg">
<g id="Flag_of_the_United_Kingdom 1">
<g clip-path="url(#clip0_16224_646)">
<g id="Group">
<path id="Vector" d="M-2.35791 -0.482422V16.4828H26.3579V-0.482422H-2.35791Z" fill="#012169"/>
<path id="Vector_2" d="M26.3579 -0.482422L-2.35791 16.4828L26.3579 -0.482422Z" fill="black"/>
<path id="Vector (Stroke)" fill-rule="evenodd" clip-rule="evenodd" d="M8.78948 8L-3 1.03482L-1.71579 -2L12 6.10324L25.7158 -2L27 1.03482L15.2105 8L27 14.9652L25.7158 18L12 9.89676L-1.71579 18L-3 14.9652L8.78948 8Z" fill="white"/>
<path id="Vector_3" d="M26.3579 -0.482422L-2.35791 16.4828L26.3579 -0.482422Z" fill="black"/>
<path id="Vector (Stroke)_2" fill-rule="evenodd" clip-rule="evenodd" d="M9.85973 8.00006L-2.78589 0.529075L-1.92975 -1.49414L12.0001 6.73555L25.9299 -1.49414L26.786 0.529075L14.1404 8.00006L26.786 15.471L25.9299 17.4943L12.0001 9.26456L-1.92975 17.4943L-2.78589 15.471L9.85973 8.00006Z" fill="#C8102E"/>
<path id="Vector (Stroke)_3" fill-rule="evenodd" clip-rule="evenodd" d="M9.607 5.17264V-0.482422H14.393V5.17264H26.3579V10.8277H14.393V16.4828H9.607V10.8277H-2.35791V5.17264H9.607Z" fill="white"/>
<path id="Vector (Stroke)_4" fill-rule="evenodd" clip-rule="evenodd" d="M10.5642 6.30365V-0.482422H13.4358V6.30365H26.3579V9.69668H13.4358V16.4828H10.5642V9.69668H-2.35791V6.30365H10.5642Z" fill="#C8102E"/>
</g>
</g>
</g>
<defs>
<clipPath id="clip0_16224_646">
<rect width="24" height="16" rx="4" fill="white"/>
</clipPath>
</defs>
</svg>
