<svg width="32" height="32" viewBox="0 0 32 32" fill="none" xmlns="http://www.w3.org/2000/svg">
<path d="M5.75479 16.9928C5.58606 16.8104 5.43714 16.6447 5.30974 16.5C5.43714 16.3553 5.58606 16.1896 5.75479 16.0072C6.38462 15.3263 7.28412 14.4202 8.36359 13.5169C10.5678 11.6724 13.3333 10 16 10C18.6667 10 21.4322 11.6724 23.6364 13.5169C24.7159 14.4202 25.6154 15.3263 26.2452 16.0072C26.4139 16.1896 26.5629 16.3553 26.6903 16.5C26.5629 16.6447 26.4139 16.8104 26.2452 16.9928C25.6154 17.6737 24.7159 18.5798 23.6364 19.4831C21.4322 21.3276 18.6667 23 16 23C13.3333 23 10.5678 21.3276 8.36359 19.4831C7.28412 18.5798 6.38462 17.6737 5.75479 16.9928Z" stroke="#340073" stroke-width="2"/>
<rect x="16.2407" y="13.2412" width="4.24466" height="4.24466" transform="rotate(45 16.2407 13.2412)" fill="#340073"/>
</svg>
