<svg width="24" height="24" viewBox="0 0 24 24" fill="none" xmlns="http://www.w3.org/2000/svg">
<g id="replay_24px">
<path id="icon/av/replay_24px" d="M11.9622 5.64261V2.85261C11.9622 2.40261 11.4222 2.18261 11.1122 2.50261L7.31219 6.29261C7.11219 6.49261 7.11219 6.80261 7.31219 7.00261L11.1022 10.7926C11.4222 11.1026 11.9622 10.8826 11.9622 10.4326V7.64261C15.6922 7.64261 18.6422 11.0626 17.8222 14.9326C17.3522 17.2026 15.5122 19.0326 13.2522 19.5026C9.68219 20.2526 6.50219 17.8026 6.02219 14.4926C5.95219 14.0126 5.53219 13.6426 5.04219 13.6426C4.44219 13.6426 3.96219 14.1726 4.04219 14.7726C4.66219 19.1626 8.84219 22.4126 13.5722 21.4926C16.6922 20.8826 19.2022 18.3726 19.8122 15.2526C20.8022 10.1226 16.9022 5.64261 11.9622 5.64261Z" fill="#340073"/>
</g>
</svg>
